<?xml version="1.0" encoding="utf-8"?>
<!-- Generator: Adobe Illustrator 21.0.0, SVG Export Plug-In . SVG Version: 6.00 Build 0)  -->
<svg version="1.1" id="Layer_1" xmlns="http://www.w3.org/2000/svg" xmlns:xlink="http://www.w3.org/1999/xlink" x="0px" y="0px"
	 viewBox="0 0 489 329.6" style="enable-background:new 0 0 489 329.6;" xml:space="preserve">
<style type="text/css">
	.st0{fill:#E5E6E7;}
	.st1{fill:#10357E;}
	.st2{fill:#FFFFFF;}
	.st3{fill:#FF5F00;}
	.st4{fill:#EB001B;}
	.st5{fill:#F79E1B;}
</style>
<g>
	<rect x="78.5" y="119" class="st0" width="142.5" height="90"/>
	<path class="st1" d="M137.2,142.5L124.8,172h-8.1l-6.1-23.6c-0.4-1.5-0.7-2-1.8-2.6c-1.8-1-4.9-1.9-7.5-2.5l0.2-0.9h13
		c1.7,0,3.1,1.1,3.5,3l3.2,17.1l8-20.1h8 M168.8,162.4c0-7.8-10.8-8.2-10.7-11.7c0-1.1,1-2.2,3.2-2.5c1.1-0.1,4.1-0.2,7.5,1.3
		l1.3-6.3c-1.8-0.7-4.2-1.3-7.1-1.3c-7.6,0-12.9,4-12.9,9.8c0,4.2,3.8,6.6,6.7,8c3,1.4,4,2.4,4,3.7c0,2-2.4,2.9-4.6,2.9
		c-3.8,0.1-6.1-1-7.9-1.9L147,171c1.8,0.8,5.1,1.5,8.5,1.6C163.6,172.5,168.8,168.6,168.8,162.4 M188.8,172.1h7.1l-6.2-29.5h-6.5
		c-1.5,0-2.7,0.9-3.3,2.2l-11.5,27.4h8l1.6-4.4h9.8L188.8,172.1z M180.3,161.6l4-11.1l2.3,11.1H180.3z M148.1,142.5l-6.3,29.5h-7.6
		l6.3-29.5H148.1z"/>
	<rect x="242.8" y="119.8" width="140.2" height="88.6"/>
	<path class="st2" d="M281.9,201v-5c0-1.9-1.1-3.1-3.1-3.2c-1,0-2.1,0.3-2.8,1.4c-0.6-0.9-1.4-1.4-2.6-1.4c-0.9,0-1.8,0.2-2.4,1.2
		v-1h-1.6v8h1.6v-4.6c0-1.4,0.8-2.1,2-2.1s1.8,0.8,1.8,2.1v4.6h1.6v-4.6c0-1.4,0.9-2.1,2-2.1c1.2,0,1.8,0.8,1.8,2.1v4.6H281.9z
		 M307.9,193H305v-2.4h-1.6v2.4h-1.7v1.5h1.7v3.8c0,1.9,0.7,3,2.7,3c0.8,0,1.6-0.2,2.2-0.6l-0.5-1.4c-0.5,0.3-1.1,0.5-1.5,0.5
		c-0.9,0-1.2-0.5-1.2-1.3v-3.8h2.9L307.9,193L307.9,193z M322.7,192.8c-1,0-1.7,0.5-2.2,1.2v-1H319v8h1.6v-4.5
		c0-1.3,0.6-2.2,1.8-2.2c0.4,0,0.7,0.1,1.1,0.2l0.5-1.5C323.6,192.9,323.1,192.8,322.7,192.8z M300.4,193.7c-0.8-0.6-2-0.8-3.3-0.8
		c-2,0-3.3,1-3.3,2.5c0,1.3,0.9,2.1,2.7,2.3l0.8,0.1c1,0.1,1.5,0.5,1.5,0.9c0,0.6-0.7,1-1.9,1c-1.3,0-2.1-0.4-2.7-0.8l-0.8,1.3
		c1.2,0.9,2.6,1,3.5,1c2.3,0,3.6-1.1,3.6-2.6c0-1.4-1-2.1-2.7-2.4l-0.8-0.1c-0.8-0.1-1.4-0.3-1.4-0.9c0-0.6,0.6-1,1.6-1
		s2,0.4,2.5,0.7L300.4,193.7z M324.5,197c0,2.4,1.6,4.2,4.2,4.2c1.2,0,2-0.3,2.9-1l-0.8-1.3c-0.7,0.5-1.3,0.7-2.1,0.7
		c-1.4,0-2.5-1.1-2.5-2.7c0-1.6,1.1-2.7,2.5-2.7c0.8,0,1.4,0.3,2.1,0.7l0.8-1.3c-0.9-0.7-1.7-1-2.9-1
		C326.1,192.8,324.5,194.6,324.5,197z M313.3,192.8c-2.3,0-3.9,1.7-3.9,4.2s1.7,4.2,4.1,4.2c1.2,0,2.3-0.3,3.3-1.1l-0.9-1.2
		c-0.7,0.5-1.5,0.8-2.3,0.8c-1.1,0-2.3-0.6-2.5-2.1h6c0-0.2,0-0.4,0-0.7C317.1,194.5,315.6,192.8,313.3,192.8z M313.3,194.3
		c1.2,0,2,0.8,2.1,2h-4.3C311.2,195.2,312,194.3,313.3,194.3z M291.7,197v-4h-1.6v1c-0.6-0.7-1.5-1.2-2.6-1.2
		c-2.2,0-3.9,1.8-3.9,4.2s1.7,4.2,3.9,4.2c1.1,0,2-0.5,2.6-1.2v1h1.6V197z M285.3,197c0-1.5,1-2.7,2.5-2.7s2.4,1.2,2.4,2.7
		s-1,2.7-2.4,2.7C286.2,199.7,285.3,198.5,285.3,197z M346.8,192.8c-1,0-1.7,0.5-2.2,1.2v-1H343v8h1.6v-4.5c0-1.3,0.6-2.2,1.8-2.2
		c0.4,0,0.7,0.1,1.1,0.2l0.5-1.5C347.6,192.9,347.1,192.8,346.8,192.8z M359.6,199.9c0.1,0,0.2,0,0.3,0.1c0.1,0,0.2,0.1,0.3,0.2
		c0.1,0.1,0.1,0.2,0.2,0.3c0,0.1,0.1,0.2,0.1,0.3c0,0.1,0,0.2-0.1,0.3c0,0.1-0.1,0.2-0.2,0.3c-0.1,0.1-0.2,0.1-0.3,0.2
		c-0.1,0-0.2,0.1-0.3,0.1c-0.1,0-0.2,0-0.3-0.1c-0.1,0-0.2-0.1-0.3-0.2c-0.1-0.1-0.1-0.2-0.2-0.3c0-0.1-0.1-0.2-0.1-0.3
		c0-0.1,0-0.2,0.1-0.3c0-0.1,0.1-0.2,0.2-0.3c0.1-0.1,0.2-0.1,0.3-0.2C359.4,199.9,359.5,199.9,359.6,199.9z M359.6,201.3
		c0.1,0,0.2,0,0.2,0c0.1,0,0.1-0.1,0.2-0.1c0.1-0.1,0.1-0.1,0.1-0.2s0-0.2,0-0.2c0-0.1,0-0.2,0-0.2c0-0.1-0.1-0.1-0.1-0.2
		c-0.1-0.1-0.1-0.1-0.2-0.1c-0.1,0-0.2,0-0.2,0c-0.1,0-0.2,0-0.2,0c-0.1,0-0.1,0.1-0.2,0.1c-0.1,0.1-0.1,0.1-0.1,0.2
		c0,0.1,0,0.2,0,0.2c0,0.1,0,0.2,0,0.2c0,0.1,0.1,0.1,0.1,0.2c0.1,0.1,0.1,0.1,0.2,0.1C359.5,201.2,359.5,201.3,359.6,201.3z
		 M359.7,200.3c0.1,0,0.2,0,0.2,0.1c0.1,0,0.1,0.1,0.1,0.2c0,0.1,0,0.1-0.1,0.2c0,0-0.1,0.1-0.2,0.1l0.2,0.3h-0.2l-0.2-0.3h-0.1v0.3
		h-0.2v-0.7h0.5V200.3z M359.5,200.4v0.2h0.2h0.1c0,0,0,0,0-0.1v-0.1h-0.1H359.5z M340.7,197v-4h-1.6v1c-0.6-0.7-1.5-1.2-2.6-1.2
		c-2.2,0-3.9,1.8-3.9,4.2s1.7,4.2,3.9,4.2c1.1,0,2-0.5,2.6-1.2v1h1.6V197z M334.2,197c0-1.5,1-2.7,2.5-2.7s2.4,1.2,2.4,2.7
		s-1,2.7-2.4,2.7C335.2,199.7,334.2,198.5,334.2,197z M356.7,197v-7.2h-1.6v4.2c-0.6-0.7-1.5-1.2-2.6-1.2c-2.2,0-3.9,1.8-3.9,4.2
		s1.7,4.2,3.9,4.2c1.1,0,2-0.5,2.6-1.2v1h1.6V197z M350.3,197c0-1.5,1-2.7,2.5-2.7s2.4,1.2,2.4,2.7s-1,2.7-2.4,2.7
		C351.2,199.7,350.3,198.5,350.3,197z"/>
	<rect x="298.5" y="132.4" class="st3" width="28.9" height="47.1"/>
	<path class="st4" d="M301.5,156c0-9.6,4.5-18.1,11.4-23.6c-5.1-4-11.5-6.4-18.5-6.4c-16.6,0-30,13.4-30,30c0,16.6,13.4,30,30,30
		c7,0,13.4-2.4,18.5-6.4C305.9,174,301.5,165.5,301.5,156z"/>
	<path class="st5" d="M358.6,174.5v-1h0.4v-0.2h-1v0.2h0.4v1H358.6z M360.5,174.5v-1.2h-0.3l-0.3,0.8l-0.3-0.8h-0.3v1.2h0.2v-0.9
		l0.3,0.8h0.2l0.3-0.8v0.9H360.5z"/>
	<path class="st5" d="M361.4,156c0,16.6-13.4,30-30,30c-7,0-13.4-2.4-18.5-6.4c7-5.5,11.4-14,11.4-23.6s-4.5-18.1-11.4-23.6
		c5.1-4,11.5-6.4,18.5-6.4C348,126,361.4,139.4,361.4,156z"/>
</g>
</svg>
