<svg xmlns="http://www.w3.org/2000/svg" viewBox="0 0 61.73 92.1"><title>price</title><path d="M31.33,23.4c5.4.1,12,2.1,14.3,6.4a4.47,4.47,0,0,0,6.1,1.8L57,28.8a4.47,4.47,0,0,0,1.8-6.1C55.13,15.7,48.13,11,39,9.4V4.5A4.48,4.48,0,0,0,34.53,0h-5.9a4.48,4.48,0,0,0-4.5,4.5V9.4C12.93,11.3,1.73,17.7,2,31c.4,16.8,17,19.6,28,21.4,10.9,2,16.4,3.8,16.3,8.2,0,7-11.4,7.6-15,7.6-6.3,0-14.6-2-17.3-7.5a4.53,4.53,0,0,0-2.6-2.3,4.31,4.31,0,0,0-3.5.3l-5.5,2.8a4.57,4.57,0,0,0-2,6c4,8.2,12.7,13.8,23.6,15.3v4.8a4.48,4.48,0,0,0,4.5,4.5h5.8a4.48,4.48,0,0,0,4.5-4.5V82.7c11.9-1.9,22.8-9,22.9-21.9,0-18-17.7-21.1-29.5-23.1-12.6-2.2-15.1-4.1-15.1-6.9a4.91,4.91,0,0,1,1.3-3.5C20.83,24.9,25.83,23.4,31.33,23.4Z"/></svg>